<svg xmlns="http://www.w3.org/2000/svg" version="1.1" xmlns:xlink="http://www.w3.org/1999/xlink" xmlns:svgjs="http://svgjs.dev/svgjs" width="1000" height="623" viewBox="0 0 1000 623"><g transform="matrix(1,0,0,1,-0.6060606060606233,0.2522267206477409)"><svg viewBox="0 0 396 247" data-background-color="#ffffff" preserveAspectRatio="xMidYMid meet" height="623" width="1000" xmlns="http://www.w3.org/2000/svg" xmlns:xlink="http://www.w3.org/1999/xlink"><defs></defs><g id="tight-bounds" transform="matrix(1,0,0,1,0.2400000000000091,-0.09999999999999432)"><svg viewBox="0 0 395.52 247.2" height="247.2" width="395.52"><g><svg></svg></g><g><svg viewBox="0 0 395.52 247.2" height="247.2" width="395.52"><g transform="matrix(2.900736699661692, 0, 0, 2.900736699661692, 75.15956844813809, 1)"><svg xmlns="http://www.w3.org/2000/svg" xmlns:xlink="http://www.w3.org/1999/xlink" version="1.1" x="0" y="0" viewBox="7.734947204589844 7.735245704650879 84.53054809570312 84.5302505493164" enable-background="new 0 0 100 100" xml:space="preserve" height="84.5302505493164" width="84.53054809570312" class="icon-none" data-fill-palette-color="accent" id="none"><g fill="#1ebbd7" data-fill-palette-color="accent"><g fill="#1ebbd7" data-fill-palette-color="accent"><g fill="#1ebbd7" data-fill-palette-color="accent"><path d="M28.368 14.767C42.162 16.327 48.04 25.762 49.69 30.695c1.07 3.198 1.472 5.094 1.472 9.275 0 0.817 0.044 2.076-1.054 2.216-0.77 0.099-1.209-0.509-1.273-1.182-0.289-3.026-1.159-6.569-4.008-9.85-2.253-2.594-7.472-7.802-16.652-7.021-2.669 0.228-5.052-1.868-5.129-4.564C22.964 16.703 25.531 14.446 28.368 14.767z" fill="#1ebbd7" data-fill-palette-color="accent"></path><path d="M71.633 85.232c-13.794-1.561-19.671-10.995-21.322-15.929-1.07-3.198-1.472-5.094-1.472-9.275 0-0.817-0.044-2.076 1.054-2.216 0.77-0.099 1.209 0.509 1.273 1.182 0.289 3.026 1.159 6.569 4.008 9.85 2.253 2.594 7.472 7.802 16.652 7.021 2.669-0.228 5.052 1.868 5.129 4.564C77.037 83.296 74.47 85.553 71.633 85.232z" fill="#1ebbd7" data-fill-palette-color="accent"></path></g><g fill="#1ebbd7" data-fill-palette-color="accent"><path d="M14.768 71.633c1.56-13.794 10.995-19.672 15.928-21.322 3.198-1.07 5.094-1.472 9.276-1.472 0.817 0 2.076-0.045 2.216 1.054 0.098 0.77-0.509 1.209-1.182 1.273-3.026 0.288-6.569 1.159-9.849 4.008-2.594 2.254-7.802 7.473-7.021 16.652 0.228 2.669-1.868 5.052-4.564 5.129C16.704 77.036 14.447 74.47 14.768 71.633z" fill="#1ebbd7" data-fill-palette-color="accent"></path><path d="M85.233 28.367c-1.56 13.794-10.995 19.672-15.928 21.322-3.198 1.07-5.094 1.472-9.276 1.472-0.817 0-2.076 0.045-2.216-1.054-0.098-0.77 0.509-1.209 1.182-1.273 3.026-0.288 6.569-1.159 9.849-4.008 2.594-2.254 7.802-7.473 7.021-16.652-0.228-2.669 1.868-5.052 4.564-5.129C83.297 22.964 85.554 25.53 85.233 28.367z" fill="#1ebbd7" data-fill-palette-color="accent"></path></g></g><g fill="#1ebbd7" data-fill-palette-color="accent"><g fill="#1ebbd7" data-fill-palette-color="accent"><path d="M13.65 30.304c12.726-5.546 22.533-0.314 26.43 3.133 2.526 2.234 3.821 3.676 5.912 7.297 0.409 0.708 1.077 1.775 0.195 2.446-0.617 0.47-1.302 0.164-1.693-0.387-1.763-2.477-4.289-5.109-8.396-6.525-3.249-1.12-10.373-3.021-17.931 2.246-2.198 1.531-5.309 0.907-6.724-1.389C9.938 34.682 11.033 31.444 13.65 30.304z" fill="#1ebbd7" data-fill-palette-color="accent"></path><path d="M86.351 69.695c-12.726 5.546-22.533 0.314-26.43-3.133-2.526-2.234-3.821-3.676-5.912-7.297-0.409-0.708-1.077-1.775-0.196-2.446 0.618-0.47 1.302-0.164 1.694 0.387 1.763 2.477 4.289 5.109 8.396 6.525 3.249 1.12 10.373 3.021 17.931-2.245 2.198-1.532 5.309-0.908 6.724 1.388C90.063 65.317 88.968 68.555 86.351 69.695z" fill="#1ebbd7" data-fill-palette-color="accent"></path></g><g fill="#1ebbd7" data-fill-palette-color="accent"><path d="M30.304 86.351c-5.546-12.726-0.314-22.533 3.133-26.43 2.235-2.525 3.676-3.821 7.298-5.912 0.708-0.409 1.775-1.076 2.445-0.195 0.47 0.617 0.164 1.302-0.387 1.693-2.477 1.764-5.109 4.289-6.525 8.396-1.12 3.248-3.021 10.372 2.246 17.931 1.531 2.198 0.908 5.31-1.389 6.725C34.683 90.062 31.445 88.968 30.304 86.351z" fill="#1ebbd7" data-fill-palette-color="accent"></path><path d="M69.696 13.649c5.546 12.726 0.314 22.533-3.133 26.43-2.234 2.526-3.675 3.821-7.297 5.913-0.708 0.408-1.775 1.076-2.446 0.195-0.47-0.618-0.163-1.303 0.388-1.694 2.477-1.763 5.109-4.288 6.525-8.396 1.12-3.249 3.021-10.372-2.246-17.932-1.532-2.198-0.908-5.309 1.388-6.724C65.318 9.938 68.556 11.032 69.696 13.649z" fill="#1ebbd7" data-fill-palette-color="accent"></path></g></g><g fill="#1ebbd7" data-fill-palette-color="accent"><g fill="#1ebbd7" data-fill-palette-color="accent"><path d="M8.671 51.118c8.248-11.166 19.357-11.539 24.456-10.502 3.305 0.672 5.147 1.272 8.769 3.363 0.708 0.408 1.82 0.999 1.392 2.021-0.299 0.716-1.045 0.793-1.66 0.512-2.765-1.263-6.269-2.28-10.533-1.453-3.374 0.654-10.494 2.57-14.406 10.911-1.138 2.425-4.144 3.44-6.518 2.159C7.646 56.766 6.976 53.414 8.671 51.118z" fill="#1ebbd7" data-fill-palette-color="accent"></path><path d="M91.329 48.882C83.081 60.047 71.971 60.42 66.874 59.383c-3.305-0.672-5.147-1.272-8.769-3.363-0.708-0.408-1.82-0.999-1.393-2.021 0.3-0.716 1.046-0.793 1.66-0.512 2.766 1.264 6.269 2.28 10.534 1.453 3.373-0.654 10.493-2.569 14.406-10.91 1.138-2.426 4.144-3.441 6.517-2.16C92.354 43.233 93.025 46.585 91.329 48.882z" fill="#1ebbd7" data-fill-palette-color="accent"></path></g><g fill="#1ebbd7" data-fill-palette-color="accent"><path d="M51.119 91.329C39.953 83.081 39.58 71.972 40.617 66.874c0.673-3.305 1.272-5.147 3.364-8.77 0.409-0.708 1-1.819 2.02-1.392 0.716 0.3 0.793 1.045 0.512 1.66-1.263 2.765-2.28 6.269-1.453 10.533 0.654 3.374 2.57 10.493 10.911 14.406 2.425 1.138 3.44 4.144 2.159 6.518C56.766 92.354 53.415 93.025 51.119 91.329z" fill="#1ebbd7" data-fill-palette-color="accent"></path><path d="M48.882 8.672c11.166 8.247 11.538 19.356 10.501 24.455-0.672 3.305-1.271 5.147-3.362 8.77-0.409 0.707-1 1.819-2.021 1.392-0.716-0.3-0.792-1.046-0.511-1.661 1.263-2.765 2.28-6.268 1.453-10.533-0.655-3.373-2.57-10.492-10.911-14.406-2.426-1.137-3.44-4.144-2.159-6.517C43.234 7.646 46.585 6.976 48.882 8.672z" fill="#1ebbd7" data-fill-palette-color="accent"></path></g></g></g></svg></g><rect width="348.05760000000004" height="163.55192591701334" fill="#041F67" y="41.82403704149333" x="23.731199999999973" data-fill-palette-color="quaternary"></rect><g transform="matrix(1,0,0,1,39.55199999999999,68.05141333333333)"><svg viewBox="0 0 316.416 111.09717333333333" height="111.09717333333333" width="316.416"><g><svg viewBox="0 0 316.416 111.09717333333333" height="111.09717333333333" width="316.416"><g><svg viewBox="0 0 316.416 111.09717333333333" height="111.09717333333333" width="316.416"><g><svg viewBox="0 0 316.416 111.09717333333333" height="111.09717333333333" width="316.416"><g><svg viewBox="0 0 316.416 111.09717333333333" height="111.09717333333333" width="316.416"><g><svg viewBox="0 0 316.416 111.09717333333333" height="111.09717333333333" width="316.416"><g transform="matrix(1,0,0,1,0,0)"><svg width="316.416" viewBox="0 -30.489999771118164 87.87999725341797 30.860000610351562" height="111.09717333333333" data-palette-color="#1ebbd7"><path d="M2.66 0.07Q0 0.07 0-0.88L0-0.88Q0-1.15 0.17-1.66L0.17-1.66 9.74-29.57Q10.08-30.49 12.21-30.49L12.21-30.49 14.45-30.49Q16.58-30.49 16.92-29.57L16.92-29.57 26.49-1.66Q26.61-1.17 26.61-0.88L26.61-0.88Q26.61-0.39 26.09-0.16 25.56 0.07 24.44 0.07L24.44 0.07 22.53 0.07Q21.51 0.07 20.89-0.13 20.26-0.34 20.12-0.83L20.12-0.83 18.36-6.13 8.13-6.13 6.37-0.83Q6.1 0.07 4.37 0.07L4.37 0.07 2.66 0.07ZM9.99-11.87L16.5-11.87 14.04-19.58Q13.82-20.17 13.66-20.92 13.5-21.68 13.38-22.36L13.38-22.36 13.21-22.36 13.11-21.83Q12.87-20.39 12.55-19.58L12.55-19.58 9.99-11.87ZM35.57 0.37Q32.3 0.37 30.73-1.35 29.17-3.08 29.17-6.69L29.17-6.69 29.17-21.41Q29.17-22.09 29.81-22.44 30.44-22.78 31.78-22.78L31.78-22.78 32.98-22.78Q34.32-22.78 34.96-22.44 35.59-22.09 35.59-21.41L35.59-21.41 35.59-7.67Q35.59-6.32 36.2-5.64 36.81-4.96 38.21-4.96L38.21-4.96Q39.4-4.96 40.29-5.73 41.18-6.49 41.67-7.47L41.67-7.47 41.67-21.41Q41.67-22.09 42.31-22.44 42.94-22.78 44.28-22.78L44.28-22.78 45.48-22.78Q46.82-22.78 47.46-22.44 48.09-22.09 48.09-21.41L48.09-21.41 48.09-7.67Q48.09-5.62 48.2-4.46 48.31-3.3 48.48-2.29L48.48-2.29Q48.61-1.64 48.61-1.37L48.61-1.37Q48.61-0.88 47.7-0.56 46.8-0.24 45.64-0.1 44.48 0.05 43.77 0.05L43.77 0.05Q42.99 0.05 42.66-0.57 42.33-1.2 42.14-2.34L42.14-2.34 42.01-2.95Q40.99-1.56 39.27-0.6 37.55 0.37 35.57 0.37L35.57 0.37ZM56.07 0.07Q53.49 0.07 53.49-1.29L53.49-1.29 53.49-15.06Q53.49-18.19 53.07-20.26L53.07-20.26Q52.95-20.92 52.95-21.19L52.95-21.19Q52.95-21.68 53.86-21.98 54.78-22.29 55.94-22.44 57.1-22.58 57.81-22.58L57.81-22.58Q58.56-22.58 58.87-22.02 59.17-21.46 59.42-20.39L59.42-20.39 59.57-19.75Q60.4-21.26 61.48-22.16 62.57-23.05 64.28-23.05L64.28-23.05Q65.69-23.05 66.23-22.33 66.77-21.61 66.77-20.7L66.77-20.7Q66.77-20.21 66.6-19.32 66.43-18.43 66.11-17.75 65.79-17.07 65.4-17.07L65.4-17.07Q65.13-17.07 64.59-17.21L64.59-17.21Q63.86-17.41 63.35-17.41L63.35-17.41Q62.15-17.41 61.26-16.74 60.37-16.06 59.91-15.23L59.91-15.23 59.91-1.29Q59.91 0.07 57.27 0.07L57.27 0.07 56.07 0.07ZM74.89 0.37Q71.57 0.37 70.02-1.38 68.47-3.13 68.47-6.01L68.47-6.01Q68.47-8.18 69.38-9.92 70.28-11.67 73.04-12.87 75.8-14.06 80.93-14.06L80.93-14.06 80.93-15.5Q80.93-16.77 80.12-17.38 79.31-17.99 77.56-17.99L77.56-17.99Q76.09-17.99 75.04-17.69 73.99-17.38 72.77-16.87L72.77-16.87Q72.14-16.58 71.99-16.58L71.99-16.58Q71.55-16.58 71.03-17.24 70.5-17.9 70.11-18.75 69.72-19.6 69.72-20.04L69.72-20.04Q69.72-20.8 70.81-21.5 71.89-22.19 73.8-22.62 75.7-23.05 78.02-23.05L78.02-23.05Q82.9-23.05 85.12-21.11 87.35-19.17 87.35-15.8L87.35-15.8 87.35-7.67Q87.35-5.64 87.46-4.52 87.57-3.39 87.76-2.29L87.76-2.29Q87.88-1.64 87.88-1.37L87.88-1.37Q87.88-0.88 86.97-0.56 86.05-0.24 84.88-0.1 83.71 0.05 83 0.05L83 0.05Q82.24 0.05 81.91-0.6 81.58-1.25 81.39-2.37L81.39-2.37Q81.36-2.51 81.34-2.66 81.32-2.81 81.27-2.95L81.27-2.95Q81.02-2.49 80.23-1.71 79.44-0.93 78.07-0.28 76.7 0.37 74.89 0.37L74.89 0.37ZM77.02-4.74Q78.24-4.74 79.31-5.51 80.39-6.27 80.93-7.47L80.93-7.47 80.93-9.86Q74.85-9.86 74.85-6.67L74.85-6.67Q74.85-5.81 75.42-5.27 75.99-4.74 77.02-4.74L77.02-4.74Z" opacity="1" transform="matrix(1,0,0,1,0,0)" fill="#1ebbd7" class="undefined-text-0" data-fill-palette-color="primary" id="text-0"></path></svg></g></svg></g></svg></g></svg></g></svg></g></svg></g></svg></g></svg></g></svg><rect width="395.52" height="247.2" fill="none" stroke="none" visibility="hidden"></rect></g></svg></g></svg>